<?xml version="1.0" encoding="UTF-8"?>
<svg version="1.1" xmlns="http://www.w3.org/2000/svg" width="32" height="32">
<path d="M0 0 C4.12974965 2.06487482 6.29527061 3.7458555 8 8 C8.7121481 13.01815989 8.52912753 16.94174495 6.25 21.5 C3.55891188 24.49009791 1.62679122 25.76913524 -2.3671875 26.3359375 C-8.08522757 26.42500354 -11.56237048 25.99386657 -16 22 C-18.73957509 17.559999 -18.65531007 13.06666568 -18 8 C-13.98902931 -0.02194138 -8.43057162 -1.09038939 0 0 Z " fill="#6F00FF" transform="translate(21,3)"/>
<path d="M0 0 C0.66 0 1.32 0 2 0 C2.12375 1.093125 2.2475 2.18625 2.375 3.3125 C2.75464801 7.07381802 2.75464801 7.07381802 5 10 C4.01 10 3.02 10 2 10 C0 8 0 8 -0.1953125 6.0546875 C-0.13020833 4.03645833 -0.06510417 2.01822917 0 0 Z " fill="#B19BFF" transform="translate(15,9)"/>
</svg>
